HIERARCHY
ROOT Hips
{
	OFFSET 0 0 0
	CHANNELS 6 Xposition Yposition Zposition Yrotation Xrotation Zrotation
	JOINT Spine
	{
		OFFSET -0 8.23869 -2.62608
		CHANNELS 3 Yrotation Xrotation Zrotation
		JOINT Spine1
		{
			OFFSET -0 7.92598 0
			CHANNELS 3 Yrotation Xrotation Zrotation
			JOINT Spine2
			{
				OFFSET -0 7.92598 0
				CHANNELS 3 Yrotation Xrotation Zrotation
				JOINT Spine3
				{
					OFFSET -0 7.92598 0
					CHANNELS 3 Yrotation Xrotation Zrotation
					JOINT Neck
					{
						OFFSET -0 15.3347 3.62608
						CHANNELS 3 Yrotation Xrotation Zrotation
						JOINT Head
						{
							OFFSET -0 10.2984 0
							CHANNELS 3 Yrotation Xrotation Zrotation
							End Site
							{
								OFFSET 0 15 0
							}
						}
					}
					JOINT LeftShoulder
					{
						OFFSET 1.71639 3.24826 3.43279
						CHANNELS 3 Yrotation Xrotation Zrotation
						JOINT LeftArm
						{
							OFFSET 19.515 0 0
							CHANNELS 3 Yrotation Xrotation Zrotation
							JOINT LeftForeArm
							{
								OFFSET 23.117 0 0
								CHANNELS 3 Yrotation Xrotation Zrotation
								JOINT LeftHand
								{
									OFFSET 24.3821 0 0
									CHANNELS 3 Yrotation Xrotation Zrotation
									JOINT LeftHandThumb1
									{
										OFFSET 4.89344 0 2.57866
										CHANNELS 3 Yrotation Xrotation Zrotation
										JOINT LeftHandThumb2
										{
											OFFSET 3 0 1
											CHANNELS 3 Yrotation Xrotation Zrotation
											JOINT LeftHandThumb3
											{
												OFFSET 2.1 0 0
												CHANNELS 3 Yrotation Xrotation Zrotation
												JOINT LeftHandThumb4
												{
													OFFSET 1.305 0 0
													CHANNELS 3 Yrotation Xrotation Zrotation
													End Site
													{
														OFFSET -0 0 0
													}
												}
											}
										}
									}
									JOINT LeftHandIndex1
									{
										OFFSET 9.17063 0 3.39553
										CHANNELS 3 Yrotation Xrotation Zrotation
										JOINT LeftHandIndex2
										{
											OFFSET 3.5 0 0
											CHANNELS 3 Yrotation Xrotation Zrotation
											JOINT LeftHandIndex3
											{
												OFFSET 2.45 0 0
												CHANNELS 3 Yrotation Xrotation Zrotation
												JOINT LeftHandIndex4
												{
													OFFSET 1.5225 0 0
													CHANNELS 3 Yrotation Xrotation Zrotation
													End Site
													{
														OFFSET -0 0 0
													}
												}
											}
										}
									}
									JOINT LeftHandMiddle1
									{
										OFFSET 9.21351 0 0.900721
										CHANNELS 3 Yrotation Xrotation Zrotation
										JOINT LeftHandMiddle2
										{
											OFFSET 4.6 0 0
											CHANNELS 3 Yrotation Xrotation Zrotation
											JOINT LeftHandMiddle3
											{
												OFFSET 3.22 0 0
												CHANNELS 3 Yrotation Xrotation Zrotation
												JOINT LeftHandMiddle4
												{
													OFFSET 2.001 0 0
													CHANNELS 3 Yrotation Xrotation Zrotation
													End Site
													{
														OFFSET -0 0 0
													}
												}
											}
										}
									}
									JOINT LeftHandRing1
									{
										OFFSET 8.95639 0 -1.59409
										CHANNELS 3 Yrotation Xrotation Zrotation
										JOINT LeftHandRing2
										{
											OFFSET 3.75 0 0
											CHANNELS 3 Yrotation Xrotation Zrotation
											JOINT LeftHandRing3
											{
												OFFSET 2.625 0 0
												CHANNELS 3 Yrotation Xrotation Zrotation
												JOINT LeftHandRing4
												{
													OFFSET 1.63125 0 0
													CHANNELS 3 Yrotation Xrotation Zrotation
													End Site
													{
														OFFSET -0 0 0
													}
												}
											}
										}
									}
									JOINT LeftHandPinky1
									{
										OFFSET 8.39928 0 -4.08889
										CHANNELS 3 Yrotation Xrotation Zrotation
										JOINT LeftHandPinky2
										{
											OFFSET 2.875 0 0
											CHANNELS 3 Yrotation Xrotation Zrotation
											JOINT LeftHandPinky3
											{
												OFFSET 2.0125 0 0
												CHANNELS 3 Yrotation Xrotation Zrotation
												JOINT LeftHandPinky4
												{
													OFFSET 1.25062 0 0
													CHANNELS 3 Yrotation Xrotation Zrotation
													End Site
													{
														OFFSET -0 0 0
													}
												}
											}
										}
									}
								}
							}
						}
					}
					JOINT RightShoulder
					{
						OFFSET -1.71639 3.24826 3.43279
						CHANNELS 3 Yrotation Xrotation Zrotation
						JOINT RightArm
						{
							OFFSET -19.515 0 0
							CHANNELS 3 Yrotation Xrotation Zrotation
							JOINT RightForeArm
							{
								OFFSET -23.117 0 0
								CHANNELS 3 Yrotation Xrotation Zrotation
								JOINT RightHand
								{
									OFFSET -24.3821 0 0
									CHANNELS 3 Yrotation Xrotation Zrotation
									JOINT RightHandThumb1
									{
										OFFSET -4.44833 0 2.59928
										CHANNELS 3 Yrotation Xrotation Zrotation
										JOINT RightHandThumb2
										{
											OFFSET -3 0 1
											CHANNELS 3 Yrotation Xrotation Zrotation
											JOINT RightHandThumb3
											{
												OFFSET -2.1 0 0
												CHANNELS 3 Yrotation Xrotation Zrotation
												JOINT RightHandThumb4
												{
													OFFSET -1.305 0 0
													CHANNELS 3 Yrotation Xrotation Zrotation
													End Site
													{
														OFFSET -0 0 0
													}
												}
											}
										}
									}
									JOINT RightHandIndex1
									{
										OFFSET -7.73763 0 3.41549
										CHANNELS 3 Yrotation Xrotation Zrotation
										JOINT RightHandIndex2
										{
											OFFSET -3.5 0 0
											CHANNELS 3 Yrotation Xrotation Zrotation
											JOINT RightHandIndex3
											{
												OFFSET -2.45 0 0
												CHANNELS 3 Yrotation Xrotation Zrotation
												JOINT RightHandIndex4
												{
													OFFSET -1.5225 0 0
													CHANNELS 3 Yrotation Xrotation Zrotation
													End Site
													{
														OFFSET -0 0 0
													}
												}
											}
										}
									}
									JOINT RightHandMiddle1
									{
										OFFSET -8.14217 0 1.11673
										CHANNELS 3 Yrotation Xrotation Zrotation
										JOINT RightHandMiddle2
										{
											OFFSET -4.6 0 0
											CHANNELS 3 Yrotation Xrotation Zrotation
											JOINT RightHandMiddle3
											{
												OFFSET -3.22 0 0
												CHANNELS 3 Yrotation Xrotation Zrotation
												JOINT RightHandMiddle4
												{
													OFFSET -2.001 0 0
													CHANNELS 3 Yrotation Xrotation Zrotation
													End Site
													{
														OFFSET -0 0 0
													}
												}
											}
										}
									}
									JOINT RightHandRing1
									{
										OFFSET -8.24672 0 -1.18204
										CHANNELS 3 Yrotation Xrotation Zrotation
										JOINT RightHandRing2
										{
											OFFSET -3.75 0 0
											CHANNELS 3 Yrotation Xrotation Zrotation
											JOINT RightHandRing3
											{
												OFFSET -2.625 0 0
												CHANNELS 3 Yrotation Xrotation Zrotation
												JOINT RightHandRing4
												{
													OFFSET -1.63125 0 0
													CHANNELS 3 Yrotation Xrotation Zrotation
													End Site
													{
														OFFSET -0 0 0
													}
												}
											}
										}
									}
									JOINT RightHandPinky1
									{
										OFFSET -8.05126 0 -3.4808
										CHANNELS 3 Yrotation Xrotation Zrotation
										JOINT RightHandPinky2
										{
											OFFSET -2.875 0 0
											CHANNELS 3 Yrotation Xrotation Zrotation
											JOINT RightHandPinky3
											{
												OFFSET -2.0125 0 0
												CHANNELS 3 Yrotation Xrotation Zrotation
												JOINT RightHandPinky4
												{
													OFFSET -1.25062 0 0
													CHANNELS 3 Yrotation Xrotation Zrotation
													End Site
													{
														OFFSET -0 0 0
													}
												}
											}
										}
									}
								}
							}
						}
					}
				}
			}
		}
	}
	JOINT LeftUpLeg
	{
		OFFSET 10.2984 -3.43279 3
		CHANNELS 3 Yrotation Xrotation Zrotation
		JOINT LeftLeg
		{
			OFFSET -0 -43.8423 2.40295
			CHANNELS 3 Yrotation Xrotation Zrotation
			JOINT LeftFoot
			{
				OFFSET -0 -38.9759 -2.40295
				CHANNELS 3 Yrotation Xrotation Zrotation
				JOINT LeftToeBase
				{
					OFFSET -0 -9.09429 9.70353
					CHANNELS 3 Yrotation Xrotation Zrotation
					End Site
					{
						OFFSET 0 0 5
					}
				}
			}
		}
	}
	JOINT RightUpLeg
	{
		OFFSET -10.2984 -3.43279 3
		CHANNELS 3 Yrotation Xrotation Zrotation
		JOINT RightLeg
		{
			OFFSET -0 -43.8423 2.40295
			CHANNELS 3 Yrotation Xrotation Zrotation
			JOINT RightFoot
			{
				OFFSET -0 -38.9759 -2.40295
				CHANNELS 3 Yrotation Xrotation Zrotation
				JOINT RightToeBase
				{
					OFFSET -0 -9.09429 9.70353
					CHANNELS 3 Yrotation Xrotation Zrotation
					End Site
					{
						OFFSET 0 0 5
					}
				}
			}
		}
	}
}
MOTION
Frames: 4
Frame Time: 0.0047619
-68.130597 9.941479 -37.720798 79.303272 -55.598155 4.525147 -2.060935 11.652057 -1.154238 -3.663274 11.403622 -1.042041 -4.508860 11.083442 -0.724117 -5.089630 10.930835 -0.583132 -31.822206 6.184995 1.443969 -15.623365 3.803328 -16.720026 -18.173978 -3.722150 14.867881 -67.800236 -48.773786 -1.803108 -29.675561 -35.748636 33.425146 66.578634 -64.158189 -120.142872 2.802266 -10.538817 6.655368 3.121945 -12.145477 7.627006 -58.593261 -15.260405 22.324709 0.000003 -0.000000 12.500006 0.000003 -0.000000 12.500006 -0.000004 -0.000000 9.999999 0.000005 0.000001 4.999995 0.000062 0.000038 -6.602789 0.000062 0.000038 -6.602789 0.000064 0.000030 -5.282232 0.000026 0.000008 -2.641117 0.000121 0.000059 -43.572053 0.000121 0.000059 -43.572053 0.000119 -0.000019 -34.857625 0.000040 -0.000040 -17.428826 0.000188 0.000106 -66.191236 0.000188 0.000106 -66.191236 0.000143 -0.000101 -52.952990 0.000006 -0.000090 -26.476496 -173.195792 -0.004934 -179.916994 14.469917 0.374957 -7.649285 98.885484 -20.972011 15.320713 77.684731 -45.806181 -50.905309 -27.023434 -54.768304 95.366058 15.240038 -4.358658 -30.300195 17.648844 -4.292474 -34.913635 -54.061038 24.145339 8.478988 -0.000001 0.000007 -12.499999 -0.000001 0.000007 -12.499999 -0.000011 0.000004 -10.000007 0.000008 -0.000012 -4.999991 0.000014 -0.000001 -9.581349 0.000014 -0.000001 -9.581349 0.000014 -0.000005 -7.665071 -0.000014 -0.000003 -3.832541 -0.000004 0.000016 24.944432 -0.000004 0.000016 24.944432 0.000000 0.000008 19.955522 0.000002 0.000016 9.977780 -0.000001 0.000007 -12.499999 -0.000001 0.000007 -12.499999 -0.000011 0.000004 -10.000007 0.000008 -0.000012 -4.999991 2.802266 -10.538817 6.655368 35.666493 -68.971624 -38.690903 0.000000 20.051679 0.000000 11.806940 65.365021 -0.586119 0.000000 4.493670 0.000000 -18.595065 -60.448679 26.992337 0.000000 12.677285 0.000000 -12.429726 60.705877 11.555387 0.000000 4.947021 0.000000
-68.128918 9.946471 -37.722769 79.316797 -55.597593 4.527572 -2.069156 11.664245 -1.160928 -3.673221 11.402056 -1.052482 -4.500728 11.083613 -0.711452 -5.100042 10.894836 -0.620291 -31.832568 6.209365 1.456862 -15.619197 3.721776 -16.720347 -18.131845 -3.704352 14.863623 -67.833628 -48.815552 -1.790025 -29.677886 -35.701658 33.428306 66.535353 -64.193795 -120.134226 2.813316 -10.550375 6.659596 3.134505 -12.158865 7.631698 -58.791156 -14.765327 22.176126 -0.000001 -0.000007 12.500009 -0.000001 -0.000007 12.500009 0.000009 -0.000003 9.999999 -0.000006 -0.000001 4.999988 0.000009 0.000004 -6.583658 0.000009 0.000004 -6.583658 0.000010 -0.000007 -5.266928 0.000009 0.000007 -2.633466 0.000031 0.000012 -43.600232 0.000031 0.000012 -43.600232 0.000040 -0.000009 -34.880190 0.000014 -0.000010 -17.440099 0.000052 0.000018 -66.234640 0.000052 0.000018 -66.234640 0.000046 -0.000028 -52.987702 0.000006 -0.000023 -26.493859 -173.195812 -0.004934 -179.916995 14.468363 0.404269 -7.604125 98.905717 -20.969280 15.298692 77.684724 -45.823227 -50.875942 -26.990488 -54.771440 95.291499 15.241024 -4.361192 -30.267089 17.650040 -4.296115 -34.875646 -54.029130 24.127440 8.473496 0.000003 0.000001 -12.500005 0.000003 0.000001 -12.500005 0.000003 0.000004 -10.000006 -0.000005 -0.000007 -5.000001 0.000011 -0.000014 -9.689111 0.000011 -0.000014 -9.689111 -0.000002 0.000005 -7.751298 -0.000001 -0.000012 -3.875632 0.000004 0.000002 24.986198 0.000004 0.000002 24.986198 0.000002 0.000003 19.988955 0.000003 -0.000001 9.994474 0.000003 0.000001 -12.500005 0.000003 0.000001 -12.500005 0.000003 0.000004 -10.000006 -0.000005 -0.000007 -5.000001 2.813316 -10.550375 6.659596 35.589632 -68.999473 -38.617117 0.000000 20.054510 0.000000 11.803806 65.367065 -0.636260 0.000000 4.522144 0.000000 -18.596341 -60.439775 26.995858 0.000000 12.680454 0.000000 -12.383739 60.649769 11.572400 0.000000 4.924616 0.000000
-68.126740 9.946828 -37.715787 79.371831 -55.599686 4.474383 -2.073633 11.663846 -1.164812 -3.676089 11.395740 -1.048591 -4.480477 11.069687 -0.693567 -5.076915 10.919151 -0.607089 -31.899788 6.185636 1.490610 -15.645937 3.646383 -16.810864 -18.170832 -3.702616 14.846097 -67.862023 -48.762972 -1.750780 -29.681616 -35.722009 33.470912 66.662955 -64.152857 -120.280439 2.813316 -10.550375 6.659596 3.134505 -12.158865 7.631698 -58.791156 -14.765327 22.176126 -0.000001 -0.000007 12.500009 -0.000001 -0.000007 12.500009 0.000009 -0.000003 9.999999 -0.000006 -0.000001 4.999988 0.000009 0.000004 -6.583658 0.000009 0.000004 -6.583658 0.000010 -0.000007 -5.266928 0.000009 0.000007 -2.633466 0.000031 0.000012 -43.600232 0.000031 0.000012 -43.600232 0.000040 -0.000009 -34.880190 0.000014 -0.000010 -17.440099 0.000052 0.000018 -66.234640 0.000052 0.000018 -66.234640 0.000046 -0.000028 -52.987702 0.000006 -0.000023 -26.493859 -173.195812 -0.004934 -179.916995 14.424348 0.403805 -7.613298 98.906388 -20.978807 15.273556 77.660150 -45.866046 -50.822276 -26.910475 -54.785551 95.220060 15.241024 -4.361192 -30.267089 17.650040 -4.296115 -34.875646 -54.029130 24.127440 8.473496 0.000003 0.000001 -12.500005 0.000003 0.000001 -12.500005 0.000003 0.000004 -10.000006 -0.000005 -0.000007 -5.000001 0.000011 -0.000014 -9.689111 0.000011 -0.000014 -9.689111 -0.000002 0.000005 -7.751298 -0.000001 -0.000012 -3.875632 0.000004 0.000002 24.986198 0.000004 0.000002 24.986198 0.000002 0.000003 19.988955 0.000003 -0.000001 9.994474 0.000003 0.000001 -12.500005 0.000003 0.000001 -12.500005 0.000003 0.000004 -10.000006 -0.000005 -0.000007 -5.000001 2.813316 -10.550375 6.659596 35.535073 -69.029932 -38.573790 0.000000 20.074932 0.000000 11.797452 65.352221 -0.629995 0.000000 4.534312 0.000000 -18.539339 -60.430434 26.945615 0.000000 12.612174 0.000000 -12.433985 60.778527 11.587992 0.000000 4.842236 0.000000
-68.123517 9.947919 -37.713828 79.400850 -55.603001 4.442282 -2.069264 11.659968 -1.148466 -3.672315 11.397913 -1.037477 -4.484381 11.072729 -0.710385 -5.076635 10.918334 -0.609945 -31.917127 6.168298 1.449165 -15.634379 3.625409 -16.732510 -18.169027 -3.702593 14.850924 -67.864340 -48.806032 -1.741137 -29.666201 -35.680471 33.432972 66.733974 -64.132884 -120.370890 2.813316 -10.550375 6.659596 3.134505 -12.158865 7.631698 -58.791156 -14.765327 22.176126 -0.000001 -0.000007 12.500009 -0.000001 -0.000007 12.500009 0.000009 -0.000003 9.999999 -0.000006 -0.000001 4.999988 0.000009 0.000004 -6.583658 0.000009 0.000004 -6.583658 0.000010 -0.000007 -5.266928 0.000009 0.000007 -2.633466 0.000031 0.000012 -43.600232 0.000031 0.000012 -43.600232 0.000040 -0.000009 -34.880190 0.000014 -0.000010 -17.440099 0.000052 0.000018 -66.234640 0.000052 0.000018 -66.234640 0.000046 -0.000028 -52.987702 0.000006 -0.000023 -26.493859 -173.195812 -0.004934 -179.916995 14.401890 0.411266 -7.619881 98.922878 -20.954456 15.264986 77.769324 -45.870203 -50.906699 -26.882877 -54.767198 95.157528 15.241024 -4.361192 -30.267089 17.650040 -4.296115 -34.875646 -54.029130 24.127440 8.473496 0.000003 0.000001 -12.500005 0.000003 0.000001 -12.500005 0.000003 0.000004 -10.000006 -0.000005 -0.000007 -5.000001 0.000011 -0.000014 -9.689111 0.000011 -0.000014 -9.689111 -0.000002 0.000005 -7.751298 -0.000001 -0.000012 -3.875632 0.000004 0.000002 24.986198 0.000004 0.000002 24.986198 0.000002 0.000003 19.988955 0.000003 -0.000001 9.994474 0.000003 0.000001 -12.500005 0.000003 0.000001 -12.500005 0.000003 0.000004 -10.000006 -0.000005 -0.000007 -5.000001 2.813316 -10.550375 6.659596 35.466186 -69.049703 -38.503764 0.000000 20.076545 0.000000 11.796612 65.331238 -0.654197 0.000000 4.487316 0.000000 -18.503794 -60.437949 26.922841 0.000000 12.610532 0.000000 -12.432367 60.761731 11.676473 0.000000 4.877801 0.000000
